<svg width="27" height="23" viewBox="0 0 27 23" fill="none" xmlns="http://www.w3.org/2000/svg">
<path d="M1.6875 6.775C1.6875 4.88482 1.6875 3.93973 2.05535 3.21778C2.37893 2.58274 2.89524 2.06643 3.53028 1.74285C4.25223 1.375 5.19732 1.375 7.0875 1.375H8.82181C9.9866 1.375 10.569 1.375 11.0876 1.54751C11.5464 1.70011 11.9671 1.94951 12.3211 2.27882C12.7213 2.65109 13.0007 3.16206 13.5596 4.18401L14.2383 5.425H19.9125C21.8027 5.425 22.7478 5.425 23.4697 5.79285C24.1048 6.11643 24.6211 6.63273 24.9446 7.26778C25.3125 7.98973 25.3125 8.93482 25.3125 10.825V16.225C25.3125 18.1152 25.3125 19.0603 24.9446 19.7822C24.6211 20.4173 24.1048 20.9336 23.4697 21.2571C22.7478 21.625 21.8027 21.625 19.9125 21.625H7.0875C5.19732 21.625 4.25223 21.625 3.53028 21.2571C2.89524 20.9336 2.37893 20.4173 2.05535 19.7822C1.6875 19.0603 1.6875 18.1152 1.6875 16.225V6.775Z" stroke="#FFF7F7" stroke-width="2"/>
</svg>
